<svg width="443" height="102" viewBox="0 0 443 102" fill="none" xmlns="http://www.w3.org/2000/svg">
<mask id="mask0_28_31" style="mask-type:luminance" maskUnits="userSpaceOnUse" x="0" y="0" width="443" height="102">
<path d="M443 0.857178H0V101.143H443V0.857178Z" fill="white"/>
</mask>
<g mask="url(#mask0_28_31)">
<path d="M125.569 42.0608C122.439 39.963 114.216 39.0678 108.239 40.6714C107.919 34.7445 104.846 29.7494 99.2293 25.3906L97.1516 24.0021L95.7658 26.0863C93.0417 30.2007 91.8939 35.6854 92.2996 40.6714C92.6205 43.7438 93.6926 47.1954 95.7658 49.7007C87.9855 54.1935 80.8123 53.1734 49.0501 53.1734H0.0117068C-0.130607 60.3137 1.02149 74.0455 9.79437 85.2246C10.7643 86.4608 11.8253 87.6542 12.9793 88.8048C20.1123 95.915 30.8893 101.129 47.0043 101.143C71.5897 101.165 92.6524 87.9359 105.467 55.9531C109.683 56.0206 120.813 56.7052 126.26 46.2281C126.393 46.0522 127.646 43.4511 127.646 43.4511L125.569 42.0626V42.0608ZM32.0153 35.5322H18.226V49.2586H32.0153V35.5322ZM49.8287 35.5322H36.0394V49.2586H49.8287V35.5322ZM67.6439 35.5322H53.8547V49.2586H67.6439V35.5322ZM85.4592 35.5322H71.6699V49.2586H85.4592V35.5322ZM14.2 35.5322H0.410298V49.2586H14.2V35.5322ZM32.0153 18.1956H18.226V31.922H32.0153V18.1956ZM49.8287 18.1956H36.0394V31.922H49.8287V18.1956ZM67.6439 18.1956H53.8547V31.922H67.6439V18.1956ZM67.6439 0.857178H53.8547V14.5835H67.6439V0.857178Z" fill="#1D63ED"/>
<path d="M442.144 80.078C442.144 83.6564 439.322 86.4662 435.65 86.4662C431.98 86.4662 429.117 83.6564 429.117 80.078C429.117 76.4997 432.016 73.7673 435.65 73.7673C439.285 73.7673 442.144 76.5771 442.144 80.078ZM430.743 80.078C430.743 82.8878 432.831 85.1187 435.691 85.1187C438.551 85.1187 440.523 82.8878 440.523 80.1172C440.523 77.3475 438.473 75.0373 435.655 75.0373C432.836 75.0373 430.745 77.3083 430.745 80.078H430.743ZM434.649 83.3883H433.18V77.0777C433.757 76.9628 434.571 76.8853 435.613 76.8853C436.813 76.8853 437.352 77.0777 437.817 77.3475C438.166 77.6165 438.436 78.117 438.436 78.7324C438.436 79.4262 437.894 79.965 437.124 80.1947V80.2722C437.739 80.501 438.088 80.9642 438.282 81.8102C438.473 82.772 438.589 83.1577 438.747 83.3883H437.162C436.968 83.1577 436.85 82.5815 436.659 81.8485C436.543 81.1565 436.156 80.8484 435.343 80.8484H434.649V83.3902V83.3883ZM434.685 79.81H435.38C436.192 79.81 436.848 79.541 436.848 78.8874C436.848 78.3094 436.425 77.9219 435.495 77.9219C435.11 77.9219 434.838 77.962 434.685 78.003V79.81Z" fill="#1D63ED"/>
<path d="M193.065 16.2139C192.155 15.3305 191.063 14.8801 189.756 14.8801C188.448 14.8801 187.325 15.3305 186.449 16.2139C185.572 17.0983 185.144 18.2324 185.144 19.5835V42.1423C180.646 38.4408 175.454 36.5737 169.549 36.5737C162.685 36.5737 156.817 39.0416 151.954 43.9939C147.091 48.9289 144.677 54.8986 144.677 61.9012C144.677 68.903 147.108 74.8563 151.954 79.8086C156.817 84.7435 162.671 87.2279 169.549 87.2279C176.427 87.2279 182.216 84.7599 187.144 79.8086C192.007 74.9228 194.421 68.954 194.421 61.9012V19.5835C194.421 18.2324 193.975 17.0983 193.065 16.2139ZM183.919 68.0041V68.0378C183.109 69.9551 182 71.639 180.595 73.073C179.191 74.5235 177.536 75.6577 175.651 76.5074C173.75 77.358 171.732 77.7755 169.566 77.7755C167.401 77.7755 165.334 77.358 163.431 76.5074C161.529 75.6577 159.892 74.5235 158.504 73.0895C157.115 71.6554 156.008 69.9724 155.198 68.0542C154.387 66.1196 153.973 64.0701 153.973 61.9012C153.973 59.7323 154.387 57.682 155.198 55.7474C156.008 53.8128 157.117 52.1462 158.504 50.7121C159.894 49.278 161.547 48.1448 163.431 47.2942C165.334 46.4445 167.368 46.027 169.566 46.027C171.764 46.027 173.75 46.4445 175.651 47.2942C177.553 48.1448 179.191 49.278 180.595 50.7294C182 52.1799 183.109 53.8638 183.919 55.7647C184.73 57.682 185.144 59.7168 185.144 61.8839C185.144 64.051 184.73 66.1032 183.919 68.0041Z" fill="#1D63ED"/>
<path d="M398.551 52.1796C397.344 49.1774 395.504 46.4606 393.092 44.0255L393.06 44.0082C388.148 39.0732 382.275 36.5889 375.465 36.5889C368.654 36.5889 362.731 39.0559 357.868 44.0082C353.005 48.9431 350.593 54.9138 350.593 61.9155C350.593 68.9173 353.024 74.8706 357.868 79.8228C362.731 84.7578 368.586 87.2421 375.465 87.2421C381.713 87.2421 387.12 85.1927 391.72 81.091C392.61 80.1574 393.06 79.0242 393.06 77.705C393.06 76.3867 392.631 75.2206 391.752 74.3363C390.878 73.452 389.769 73.0025 388.446 73.0025C387.29 73.0363 386.263 73.4201 385.388 74.1868C383.999 75.3866 382.494 76.3046 380.857 76.9054C379.219 77.5062 377.433 77.8071 375.484 77.8071C373.762 77.8071 372.109 77.5409 370.54 76.9911C368.966 76.4414 367.496 75.6893 366.189 74.7065C364.864 73.7218 363.726 72.5567 362.749 71.1719C361.774 69.8034 361.03 68.2864 360.535 66.6198H395.71C397.014 66.6198 398.105 66.1703 399.016 65.286C399.927 64.4017 400.374 63.2685 400.374 61.9173C400.374 58.4165 399.758 55.1654 398.555 52.1796H398.551ZM360.498 57.2149C360.979 55.5638 361.705 54.0467 362.682 52.6637C363.659 51.2953 364.815 50.1128 366.138 49.1282C367.478 48.1445 368.931 47.3942 370.536 46.8444C372.138 46.2947 373.773 46.0276 375.465 46.0276C377.156 46.0276 378.789 46.2947 380.373 46.8444C381.962 47.3942 383.42 48.1445 384.724 49.1282C386.048 50.1128 387.204 51.2789 388.18 52.6637C389.171 54.0312 389.918 55.5483 390.431 57.2149H360.497H360.498Z" fill="#1D63ED"/>
<path d="M441.778 39.7569C440.95 38.941 439.908 38.3064 438.652 37.8397C437.395 37.3729 436.022 37.0556 434.518 36.8723C433.029 36.6891 431.624 36.6052 430.319 36.6052C427.356 36.6052 424.579 37.0893 421.968 38.0566C419.354 39.0239 416.94 40.407 414.723 42.2075V41.3086C414.723 40.0085 414.277 38.9072 413.365 37.9901C412.458 37.0738 411.382 36.607 410.11 36.607C408.839 36.607 407.711 37.0738 406.804 37.9901C405.893 38.9072 405.447 40.025 405.447 41.3086V82.5433C405.447 83.8433 405.893 84.9446 406.804 85.8609C407.711 86.778 408.802 87.2439 410.11 87.2439C411.418 87.2439 412.474 86.778 413.365 85.8609C414.277 84.9446 414.723 83.826 414.723 82.5433V61.9173C414.723 59.7165 415.137 57.6497 415.947 55.7151C416.758 53.7796 417.866 52.1139 419.27 50.6798C420.679 49.2458 422.332 48.1116 424.215 47.2938C426.117 46.4605 428.136 46.043 430.304 46.043C432.471 46.043 434.518 46.4268 436.389 47.1762C437.131 47.5108 437.778 47.6777 438.341 47.6777C438.985 47.6777 439.597 47.56 440.159 47.3111C440.72 47.0613 441.218 46.7268 441.632 46.2946C442.045 45.8616 442.374 45.3611 442.622 44.7767C442.871 44.2105 443.004 43.5924 443.004 42.9259C443.004 41.6259 442.59 40.5756 441.764 39.7569H441.78H441.778Z" fill="#1D63ED"/>
<path d="M247.602 52.1971C246.395 49.2122 244.591 46.478 242.162 44.011C237.251 39.0752 231.381 36.5908 224.567 36.5908C217.752 36.5908 211.834 39.0587 206.971 44.011C202.108 48.946 199.696 54.9157 199.696 61.9184C199.696 68.9201 202.128 74.8734 206.971 79.8257C211.834 84.7606 217.688 87.245 224.567 87.245C231.446 87.245 237.234 84.7771 242.162 79.8257C247.024 74.9391 249.439 68.9712 249.439 61.9184C249.405 58.4166 248.793 55.1828 247.603 52.1971H247.602ZM238.937 68.0039V68.0376C238.126 69.9558 237.018 71.6388 235.613 73.0728C234.209 74.5242 232.553 75.6575 230.669 76.5081C228.784 77.3578 226.75 77.7753 224.583 77.7753C222.418 77.7753 220.351 77.3578 218.45 76.5081C216.547 75.6575 214.909 74.5242 213.522 73.0902C212.132 71.6561 211.026 69.9722 210.215 68.0549C209.405 66.1203 208.991 64.0699 208.991 61.901C208.991 59.7321 209.405 57.6818 210.215 55.7472C211.026 53.8126 212.134 52.146 213.522 50.7119C214.911 49.2778 216.564 48.1446 218.45 47.294C220.351 46.4443 222.385 46.0268 224.583 46.0268C226.781 46.0268 228.767 46.4443 230.669 47.294C232.571 48.1446 234.209 49.2778 235.613 50.7292C237.018 52.1806 238.126 53.8636 238.937 55.7645C239.747 57.6818 240.161 59.7166 240.161 61.8837C240.161 64.0508 239.747 66.103 238.937 68.0039Z" fill="#1D63ED"/>
<path d="M347.085 41.2914C347.085 40.6586 346.953 40.0579 346.705 39.4908C346.457 38.9237 346.127 38.4086 345.713 37.9737C345.299 37.5407 344.804 37.1897 344.242 36.9572C343.68 36.7247 343.069 36.5907 342.423 36.5907C341.497 36.5907 340.67 36.825 339.943 37.3091L313.385 54.901V19.6169C313.385 18.2831 312.939 17.1663 312.03 16.2483C311.121 15.332 310.047 14.8652 308.773 14.8652C307.499 14.8652 306.375 15.332 305.464 16.2483C304.555 17.1645 304.109 18.2831 304.109 19.6169V82.4777C304.109 83.7777 304.555 84.8964 305.464 85.829C306.373 86.7626 307.465 87.2294 308.773 87.2294C310.08 87.2294 311.138 86.7626 312.03 85.829C312.939 84.8964 313.385 83.7777 313.385 82.4777V66.1539L318.81 62.5355L339.332 85.9959C340.16 86.8118 341.202 87.2121 342.441 87.2121C343.086 87.2121 343.697 87.0954 344.258 86.8456C344.821 86.6113 345.318 86.2621 345.73 85.829C346.144 85.3969 346.474 84.8964 346.723 84.312C346.972 83.7458 347.102 83.1277 347.102 82.5114C347.102 81.2779 346.674 80.1766 345.812 79.2111L326.711 57.3188L345.314 45.0138C346.504 44.1969 347.083 42.947 347.083 41.2613V41.295L347.085 41.2914Z" fill="#1D63ED"/>
<path d="M268.456 50.6801C269.877 49.2461 271.532 48.1119 273.434 47.2941C275.336 46.4608 277.354 46.0433 279.519 46.0433C281.471 46.0433 283.274 46.3779 284.944 47.0434C286.597 47.7099 288.186 48.6945 289.689 49.9772C290.581 50.6929 291.591 51.0594 292.715 51.0594C294.055 51.0594 295.146 50.6099 296.023 49.7092C296.9 48.8075 297.329 47.6743 297.329 46.3232C297.329 44.9721 296.799 43.7212 295.725 42.7558C291.16 38.6541 285.755 36.6028 279.519 36.6028C272.656 36.6028 266.787 39.0698 261.924 44.0221C257.061 48.957 254.649 54.9277 254.649 61.9294C254.649 68.9312 257.08 74.8845 261.924 79.8368C266.787 84.7717 272.641 87.2561 279.519 87.2561C285.737 87.2561 291.145 85.2066 295.725 81.1022C296.7 80.103 297.198 78.9524 297.198 77.6186C297.198 76.2848 296.767 75.1343 295.892 74.2499C295.015 73.3656 293.909 72.9162 292.585 72.9162C291.462 72.9499 290.485 73.2826 289.659 73.9154C288.171 75.2154 286.616 76.1827 284.946 76.8328C283.292 77.4828 281.49 77.8 279.522 77.8C277.355 77.8 275.338 77.3825 273.436 76.5492C271.534 75.7159 269.88 74.5827 268.457 73.165C267.036 71.7483 265.91 70.048 265.1 68.1298C264.289 66.1952 263.875 64.1284 263.875 61.9276C263.875 59.7259 264.289 57.6591 265.1 55.7245C265.91 53.7899 267.033 52.1233 268.457 50.6892V50.6728L268.456 50.6801Z" fill="#1D63ED"/>
</g>
</svg>
