<svg width="32" height="32" viewBox="0 0 42 42" fill="none" xmlns="http://www.w3.org/2000/svg">
<path d="M27.3601 37.5319V31.0979C27.5929 29.0829 26.9919 27.0607 25.687 25.4681C30.7065 25.4681 35.7259 22.2511 35.7259 16.6213C35.8598 14.6106 35.2742 12.6322 34.0528 10.9915C34.5212 9.14169 34.5212 7.21148 34.0528 5.36169C34.0528 5.36169 32.3796 5.36169 29.0333 7.77446C24.6162 6.9702 20.0652 6.9702 15.648 7.77446C12.3017 5.36169 10.6286 5.36169 10.6286 5.36169C10.1266 7.21148 10.1266 9.14169 10.6286 10.9915C9.4103 12.6255 8.81901 14.6151 8.95542 16.6213C8.95542 22.2511 13.9749 25.4681 18.9944 25.4681C18.3418 26.2562 17.8566 27.157 17.5722 28.1221C17.2877 29.0872 17.2041 30.1006 17.3212 31.0979V37.5319" stroke-width="4" stroke-linecap="round" stroke-linejoin="round"/>
<path d="M16.0852 31.1928C8.60048 34.6835 7.78729 27.7021 4.46814 27.7021" stroke-width="4" stroke-linecap="round" stroke-linejoin="round"/>
</svg>
