<svg viewBox="0 0 1782 335" fill="none" xmlns="http://www.w3.org/2000/svg">
<path d="M1648.12 274.859V275.718C1648.12 276.084 1647.96 276.386 1647.66 276.625C1647.36 276.855 1646.98 276.97 1646.52 276.97C1646.11 276.97 1645.79 276.875 1645.56 276.684C1645.33 276.485 1645.21 276.219 1645.21 275.885C1645.21 275.567 1645.31 275.317 1645.5 275.134C1645.7 274.951 1645.97 274.859 1646.3 274.859H1648.12Z"/>
<path d="M1661.16 272.283C1661.57 272.283 1661.89 272.41 1662.12 272.664C1662.36 272.911 1662.48 273.257 1662.48 273.702V275.42C1662.48 275.865 1662.36 276.215 1662.12 276.47C1661.89 276.716 1661.57 276.839 1661.16 276.839C1660.74 276.839 1660.41 276.72 1660.17 276.481C1659.93 276.235 1659.81 275.881 1659.81 275.42V273.702C1659.81 273.241 1659.93 272.891 1660.17 272.652C1660.41 272.406 1660.74 272.283 1661.16 272.283Z"/>
<path d="M1676.9 274.859V275.718C1676.9 276.084 1676.74 276.386 1676.44 276.625C1676.14 276.855 1675.76 276.97 1675.3 276.97C1674.89 276.97 1674.57 276.875 1674.34 276.684C1674.11 276.485 1673.99 276.219 1673.99 275.885C1673.99 275.567 1674.09 275.317 1674.28 275.134C1674.48 274.951 1674.75 274.859 1675.08 274.859H1676.9Z"/>
<path d="M1682.75 272.283C1683.16 272.283 1683.48 272.41 1683.71 272.664C1683.95 272.911 1684.07 273.257 1684.07 273.702V275.42C1684.07 275.865 1683.95 276.215 1683.71 276.47C1683.48 276.716 1683.16 276.839 1682.75 276.839C1682.32 276.839 1681.99 276.72 1681.75 276.481C1681.51 276.235 1681.39 275.881 1681.39 275.42V273.702C1681.39 273.241 1681.51 272.891 1681.75 272.652C1681.99 272.406 1682.32 272.283 1682.75 272.283Z"/>
<path d="M1689.97 272.187C1690.43 272.187 1690.78 272.318 1691.02 272.581C1691.26 272.843 1691.38 273.213 1691.38 273.69V273.988L1688.55 274V273.702C1688.55 273.217 1688.67 272.843 1688.91 272.581C1689.16 272.318 1689.51 272.187 1689.97 272.187Z"/>
<path fill-rule="evenodd" clip-rule="evenodd" d="M1119.5 2.9822L1130 4.97033L1135.5 7.95252H1141L1150.5 2.9822L1154 4.97033L1157.5 3.47923L1166 12.9228L1176 16.8991L1180 18.8872L1194.5 33.7982L1210.5 32.3071L1229.5 36.7804L1235.5 38.2715L1252 47.7151L1270.5 52.6855L1284.5 54.6736L1293 59.6439L1306.5 64.6142L1321.5 70.5786L1333.5 79.0282L1339 78.0341L1351.5 82.5074L1358 85.4896L1374 79.5252L1383.5 73.0638L1390 71.5727L1396.5 69.0875L1410.5 75.0519L1432.5 84.4955L1439.5 90.957L1450 97.4184L1456.5 105.868L1471 112.826L1485 114.318C1488.5 116.14 1495.6 119.785 1496 119.785C1496.5 119.785 1507.5 120.779 1508 120.779C1508.4 120.779 1517.5 117.134 1522 115.312L1531 117.3L1538 120.282H1540.5L1545.5 114.318L1566 120.282C1575.17 121.442 1593.7 123.761 1594.5 123.761C1595.5 123.761 1622 106.862 1622.5 106.862C1623 106.862 1634 105.371 1635.5 105.868C1637 106.365 1649.5 109.844 1650.5 109.844C1651.3 109.844 1654.17 113.82 1655.5 115.809L1669 117.3L1687.5 110.838L1698.5 105.371L1712 108.85L1734.5 114.815L1760.5 129.228L1772.5 143.145L1782 150.104V335H0V145.134L9 149.607L12.5 157.559L14 160.045L18 163.524L23 168.991L33 170.979L38 172.47L42 171.973L43.5 174.458L48.5 172.967L54.5 176.944C57.5 176.778 63.7 176.447 64.5 176.447C65.3 176.447 74.8333 176.115 79.5 175.95L82.5 174.458C84.1667 175.287 87.6 176.944 88 176.944C88.4 176.944 92.1667 175.618 94 174.955L99.5 175.95L105 171.973L118 172.967L124 167.997L134.5 166.009L144.5 165.512L164.5 165.015C165.167 166.175 166.8 168.494 168 168.494H183C189.667 167.5 203.4 165.512 205 165.512C206.6 165.512 212 163.192 214.5 162.033L224 159.05L233.5 155.074C236.667 153.749 243.1 151.098 243.5 151.098C243.9 151.098 251.667 150.435 255.5 150.104L259 153.086L267.5 158.056L277.5 159.547L281 164.518L298.5 162.53L309.5 165.015L319.5 167.997C325.833 169.157 338.6 171.476 339 171.476C339.4 171.476 347.833 173.133 352 173.961L393 144.636L414 135.69L434.5 146.625L449 148.613L457 150.104L464 149.11H482.5L510.5 133.702L521.5 126.743L532.5 124.755L537 129.726L551.5 134.199L563.5 143.145L573 146.128L579.5 151.098L583 154.577L590 147.619L597.5 155.074L603.5 154.577L608.5 158.553L625.5 157.559L632.5 161.039L648.5 147.619L667 137.678L682.5 136.684L701 133.702L709 135.69L729.5 128.234L752 139.666L763.5 130.223L780.5 111.335L792.5 110.341L796.5 105.371L808.5 99.9036L818.5 102.389L832.5 86.4837L850 69.5846L861.5 69.0875L868.5 69.5846L877 71.5727L884.5 74.5549L887 76.046L891.5 71.5727L902.5 67.0994L907.5 68.5905L912 63.6202L915.5 65.1113L918 62.6261L928.5 66.1053L938.5 64.1172C943 64.1172 952.1 64.0178 952.5 63.6202C952.9 63.2226 956 59.1469 957.5 57.1588L968 54.6736L976 49.7033L982.5 51.1944L988 49.7033C994.833 49.7033 1008.6 49.6039 1009 49.2062C1009.5 48.7092 1021 43.7389 1021.5 43.7389C1021.9 43.7389 1028 42.4135 1031 41.7507L1043 35.2893L1051 42.7448H1056L1073 26.3427L1084 20.8754L1094.5 7.45549L1096.5 10.4377L1113.5 0L1119.5 2.9822ZM1646.87 271.161C1646.14 271.161 1645.54 271.336 1645.06 271.686C1644.58 272.035 1644.31 272.505 1644.24 273.093H1645.51C1645.55 272.839 1645.69 272.637 1645.93 272.486C1646.17 272.327 1646.47 272.247 1646.83 272.247C1647.24 272.247 1647.56 272.346 1647.78 272.545C1648 272.744 1648.12 273.022 1648.12 273.38V273.988H1646.28C1645.54 273.988 1644.96 274.167 1644.54 274.525C1644.12 274.875 1643.92 275.36 1643.92 275.98C1643.92 276.592 1644.11 277.078 1644.5 277.435C1644.9 277.785 1645.45 277.961 1646.14 277.961C1646.74 277.961 1647.23 277.822 1647.6 277.543C1647.9 277.306 1648.08 277.004 1648.13 276.637H1648.15V277.841H1649.41V273.356C1649.41 272.68 1649.18 272.147 1648.73 271.757C1648.27 271.36 1647.65 271.161 1646.87 271.161ZM1662.48 269.133V271.006L1662.52 272.533H1662.47C1662.42 272.156 1662.27 271.85 1662.01 271.615C1661.69 271.313 1661.26 271.161 1660.72 271.161C1660.05 271.161 1659.52 271.384 1659.12 271.829C1658.72 272.275 1658.52 272.879 1658.52 273.643V275.491C1658.52 276.247 1658.72 276.847 1659.12 277.293C1659.52 277.738 1660.05 277.961 1660.72 277.961C1661.26 277.961 1661.69 277.813 1662.01 277.519C1662.27 277.278 1662.42 276.967 1662.47 276.589H1662.49V277.841H1663.78V269.133H1662.48ZM1675.65 271.161C1674.92 271.161 1674.32 271.336 1673.84 271.686C1673.37 272.035 1673.09 272.505 1673.02 273.093H1674.29C1674.33 272.839 1674.47 272.637 1674.71 272.486C1674.95 272.327 1675.25 272.247 1675.61 272.247C1676.02 272.247 1676.34 272.346 1676.56 272.545C1676.78 272.744 1676.9 273.022 1676.9 273.38V273.988H1675.06C1674.32 273.988 1673.74 274.167 1673.32 274.525C1672.9 274.875 1672.7 275.36 1672.7 275.98C1672.7 276.592 1672.89 277.078 1673.28 277.435C1673.68 277.785 1674.23 277.961 1674.92 277.961C1675.52 277.961 1676.01 277.822 1676.38 277.543C1676.69 277.306 1676.86 277.004 1676.91 276.637H1676.93V277.841H1678.19V273.356C1678.19 272.68 1677.96 272.147 1677.51 271.757C1677.05 271.36 1676.43 271.161 1675.65 271.161ZM1684.07 269.133V271.006L1684.1 272.533H1684.06C1684.01 272.156 1683.86 271.85 1683.6 271.615C1683.28 271.313 1682.85 271.161 1682.3 271.161C1681.64 271.161 1681.11 271.384 1680.71 271.829C1680.31 272.275 1680.11 272.879 1680.11 273.643V275.491C1680.11 276.247 1680.31 276.847 1680.71 277.293C1681.11 277.738 1681.64 277.961 1682.3 277.961C1682.85 277.961 1683.28 277.813 1683.6 277.519C1683.86 277.278 1684.01 276.967 1684.06 276.589H1684.08V277.841H1685.36V269.133H1684.07ZM1689.97 271.161C1689.43 271.161 1688.96 271.268 1688.55 271.483C1688.15 271.689 1687.84 271.984 1687.63 272.366C1687.41 272.74 1687.3 273.185 1687.3 273.702V275.42C1687.3 275.929 1687.41 276.374 1687.63 276.756C1687.84 277.137 1688.15 277.435 1688.55 277.65C1688.96 277.857 1689.43 277.961 1689.97 277.961C1690.67 277.961 1691.26 277.797 1691.74 277.471C1692.22 277.137 1692.51 276.692 1692.61 276.136H1691.32C1691.27 276.39 1691.12 276.585 1690.89 276.72C1690.66 276.847 1690.36 276.911 1689.98 276.911C1689.52 276.911 1689.16 276.783 1688.91 276.529C1688.67 276.274 1688.55 275.905 1688.55 275.42V274.871H1692.63V273.702C1692.63 273.185 1692.52 272.74 1692.31 272.366C1692.09 271.984 1691.78 271.689 1691.38 271.483C1690.98 271.268 1690.51 271.161 1689.97 271.161ZM1637.01 269.133V277.841H1638.3V273.702C1638.3 273.241 1638.42 272.886 1638.65 272.64C1638.89 272.386 1639.22 272.258 1639.62 272.258C1640.02 272.258 1640.34 272.378 1640.57 272.617C1640.8 272.855 1640.92 273.189 1640.92 273.618V277.841H1642.22V273.476C1642.22 272.768 1642.02 272.207 1641.63 271.793C1641.24 271.372 1640.71 271.161 1640.06 271.161C1639.5 271.161 1639.07 271.308 1638.76 271.602C1638.51 271.838 1638.36 272.149 1638.31 272.533H1638.29L1638.3 271.281V269.133H1637.01ZM1654.45 271.161C1653.89 271.161 1653.46 271.308 1653.15 271.602C1652.9 271.838 1652.75 272.149 1652.7 272.533H1652.68V271.281H1651.4V277.841H1652.69V273.702C1652.69 273.241 1652.81 272.891 1653.04 272.652C1653.28 272.406 1653.61 272.283 1654.01 272.283C1654.41 272.283 1654.73 272.398 1654.96 272.628C1655.19 272.859 1655.31 273.189 1655.31 273.618V277.841H1656.61V273.476C1656.61 272.768 1656.41 272.207 1656.02 271.793C1655.63 271.372 1655.1 271.161 1654.45 271.161ZM1669.96 271.161C1669.62 271.161 1669.35 271.273 1669.14 271.495C1668.99 271.659 1668.89 271.865 1668.86 272.116H1668.8C1668.75 271.907 1668.67 271.728 1668.56 271.579C1668.37 271.301 1668.09 271.161 1667.73 271.161C1667.4 271.161 1667.13 271.273 1666.93 271.495C1666.78 271.659 1666.68 271.865 1666.65 272.116H1666.57V271.281H1665.49V277.841H1666.65V272.867C1666.65 272.621 1666.7 272.433 1666.8 272.306C1666.9 272.171 1667.05 272.103 1667.25 272.103C1667.46 272.103 1667.62 272.171 1667.73 272.306C1667.85 272.433 1667.9 272.624 1667.9 272.879V277.841H1668.87V272.867C1668.87 272.621 1668.93 272.433 1669.03 272.306C1669.14 272.171 1669.3 272.103 1669.5 272.103C1669.7 272.103 1669.85 272.171 1669.95 272.306C1670.07 272.441 1670.12 272.632 1670.12 272.879V277.841H1671.27V272.843C1671.27 272.334 1671.16 271.929 1670.93 271.626C1670.69 271.316 1670.37 271.161 1669.96 271.161Z"/>
</svg>
