<svg viewBox="0 0 1782 186" fill="none" xmlns="http://www.w3.org/2000/svg">
<path d="M2 77L0 80.5V186H1782V135H1778C1776.83 132 1774.4 125.8 1774 125C1773.6 124.2 1764.83 144.667 1760.5 155L1750 137C1745.67 143.167 1736.9 155.5 1736.5 155.5C1736.1 155.5 1734 144.167 1733 138.5C1730.33 144 1725 155.1 1725 155.5C1725 155.9 1716.67 149 1712.5 145.5C1711.33 149 1708.9 156.1 1708.5 156.5C1708.1 156.9 1703 143 1700.5 136L1688.5 153.5L1682 145.5C1680.67 146.333 1678.1 147.9 1678.5 147.5C1678.9 147.1 1675 135.667 1673 130L1667 139.5L1660 134.5L1655.5 140.5L1650 130L1635 136L1627 115.5L1620 130L1611 110.5L1602.5 131L1590.5 107.5L1567.5 126.5C1565.5 120.5 1561.4 108.4 1561 108C1560.5 107.5 1551.5 125 1551 124.5C1550.6 124.1 1547.17 120 1545.5 118L1538.5 123L1532 114L1524.5 126L1525 112.5L1512.5 82.5L1495 111L1495.5 102L1487 123H1462.5C1460 115.167 1455 99.3 1455 98.5C1455 97.7 1450 102.167 1447.5 104.5L1438 117.5L1427.5 98L1410 121.5L1394 91L1386 111.5L1379 104.5C1376.5 108.333 1371.5 115.7 1371.5 114.5C1371.5 113.3 1369.17 108.667 1368 106.5L1362.5 114.5L1356 107.5L1349 112.5L1343 95L1338.5 114.5L1334 112.5L1327 125L1319.5 103L1313.5 116L1310 110.5L1298.5 116L1288.5 100.5L1275.5 76.5L1265 100.5L1268 109L1260 115L1251 104L1238.5 110L1228 111L1219 102.5L1217 88.5L1209.5 74.5L1204 82L1195.5 63L1185.5 84H1173.5L1174.5 74.5L1162 46.5C1158.67 54.1667 1143.9 79.2 1143.5 80C1143 81 1150.5 83 1150 83.5C1149.6 83.9 1146.17 84.6667 1144.5 85L1138 83.5L1139.5 76.5L1128.5 58L1121.5 72L1112.5 61.5L1110 44L1100.5 43.5L1092 51C1089.17 47.5 1083.4 40.3 1083 39.5C1082.6 38.7 1076.5 48.5 1073.5 53.5L1070.5 45.5L1065.5 55L1062.5 51L1056 48H1052L1048.5 37.5L1046.5 49C1045.5 44.8333 1043.5 36.3 1043.5 35.5C1043.5 34.7 1038.5 40.5 1036 43.5L1032 35.5C1031.17 38 1029.4 43.1 1029 43.5C1028.6 43.9 1024.83 37 1023 33.5L1017.5 45.5L1007.5 27L997 35.5L993.5 25.5L987.5 15L984 20.5L976 11.5L964 26C961.833 23.3333 957.4 18 957 18C956.6 18 953.5 19.3333 952 20L949 1L936.5 26L928 8L923 23L913 4.5L907 17.5L901 8L895 19.5V14L889.5 6L885.5 14L887.5 19.5L880.5 21.5L878 14.5L872 9.5V21L868.5 17.5L863.5 21L868 16L859.5 6L850 23.5L848.5 31L845.5 34V26.5L841.5 28L838.5 24L834.5 27L831.5 21L826 25.5L821 14.5L819.5 21L815 23.5L816.5 27.5L812.5 31L807.5 28L812.5 26.5L813 23L810 24.5L807.5 23L803 25L806.5 17.5L802 8L796.5 21L792 21.5L791.5 31.5L789.5 23L783.5 32.5L781 27.5L775.5 33L780 26L772 10.5L768 21L766 14.5L758 15.5L764.5 11.5L758 0.5L751 10.5L753 18L745.5 20.5L743.5 29.5L733 21L724.5 32L717 35.5L710.5 28.5L711.5 22.5L706.5 15.5L702 21.5L704 27.5L700.5 30L697.5 26L692.5 35.5L691.5 33L688 34L689 29L682 21L681 26.5L678.5 29.5L676.5 29L678.5 18L671 7L667.5 18V25L664 22L665 26.5L659.5 32L654.5 26L659 24L661 19.5L655.5 20L651.5 21L653 19.5L655 15L649.5 11L648 15.5L644 14L646 19L639 17L639.5 25.5L636 24.5L638 20L632 16.5L627.5 22.5L628 28L622.5 31.5L623.5 38.5L621 43V37.5L613.5 34L616.5 28L612 26.5L608 15.5L601 29.5L597 15.5L587.5 38.5L590 41.5L576.5 56.5L577.5 51L575 49.5L577.5 46V40.5L570.5 31.5L566 38.5L564 45.5L560 52.5L558.5 57L558 53L555 46.5L559.5 45.5L557 40L562 41.5L555 34L562.5 36.5L553.5 19.5L549.5 26.5L551.5 33L548.5 38L547.5 34L544 33.5L548.5 31.5L542 21L539.5 32.5L536 25L532.5 37.5L532 43.5L528.5 53L525 46.5L526.5 42L522 31.5L518 39.5L517.5 45.5L511.5 47L507 31.5L504.5 35V37.5L501.5 39.5L499.5 36.5L501 35L499 31.5L494.5 39L496.5 42L490.5 46L489 54.5L486.5 48.5L487.5 46L485.5 42L480.5 46.5L482.5 51L478 53.5L474.5 48L475.5 46.5L472 38.5L467.5 45L469.5 47.5L466 50L465.5 58.5L461 50L459 54.5L455 56L450.5 43L446 42L448 38L443 35L438.5 39.5L440.5 43.5L436 44L437.5 47.5L432 50L434.5 56L429.5 54L426 58L426.5 63L420 61.5L421 54.5L418 52.5L417.5 58L414.5 62.5L412 52.5L409.5 57H406.5V54L404 48L400 54L396.5 55.5L397.5 59.5L393.5 61L394.5 64.5L388.5 59L386 61.5L383.5 54.5L382 59.5L379.5 60.5L379 57L376.5 53.5L375 59L372 58.5L369 60L367.5 56L362 62L360 65C360 65 361 60.5 359.5 56L353.5 64L348.5 66L353 69.5L345 73V69.5L346.5 67.5L343 61L338.5 70L337 72L336 75L330.5 77L325 76L327.5 74.5L326 72L328 71.5L326.5 65L320 76.5L315 76L313.5 82L311.5 80L309.5 74.5L306.5 77.5L304 81.5L302 82L301.5 77L297.5 69.5L292.5 61.5L287 65.5L287.5 72L284 74L283.5 79L279 73L275.5 80L269.5 73L270 75.5L268 80L269.5 83L265 85L267.5 88.5L264.5 89L265 93.5L262 94V97L264 100L261.5 101.5L257.5 91L243.5 73L233.5 91L227.5 77.5L225.5 82.5L219 85.5L215 82L212 87V89.5L208 90.5L207 86.5L207.5 83.5V80.5L204 80L202.5 77L205 76L201 71.5L198.5 75L200.5 78.5L197 81.5L194 79L190 76.5V79.5L192 82.5L190 83L184 81L185 82.5L187.5 84.5V87L185 88L182.5 88.5L179.5 88L177 87.5L177.5 85.5L178.5 83.5V81.5L178 79L176.5 76.5L174.5 75.5H171.5L170.5 78L167.5 76.5L166.5 79.5L169 82L165.5 83.5L164 87.5L165 89L163 90L157.5 86.5L155.5 85L157.5 84.5V82.5L153.5 77L152 80L153 82.5L150.5 85.5L153 87.5L147 91.5L148.5 89V86L149 83.5L148 79.5V77L146 74.5L142.5 75.5L144 78L140.5 81.5L145 83.5L143.5 86L140 85L136.5 89.5L141.5 92L138.5 96C137.167 95 134.4 93 134 93C133.6 93 134.833 91.6667 135.5 91L133 88L129.5 87.5L128 85H129.5L128 81H130L127 78.5L124.5 80.5L126 81L123 84.5L124.5 86.5L120.5 88L125.5 90.5L123 93.5L115 91L117 88.5L108 82L111 80.5L104 73.5L102.5 77.5H99.5L101.5 83.5L99 83L100.5 88L98 88.5L96.5 83.5L92.5 86L93 82L87.5 77L90 74.5L86 70.5L82 74L81 79.5L79 78.5L78 71.5L75.5 76.5H73L73.5 81L67 83L68.5 80L65.5 76.5L61.5 79.5L61 83L58.5 87L59 90L55.5 89.5V86.5H57.5L59 83.5L52.5 75L48.5 82L50.5 86L44 85L49 91L43.5 89.5H39.5L40 92.5L36 93L33 92L31.5 87L33.5 83L25.5 77.5L27 83L25 86L17 84.5L18.5 82L15.5 79.5L17.5 78.5L14.5 73.5L11.5 79L13 80L10 84L12 86L7.5 89L6 94L2 90.5H4.5L2 86L4.5 86.5L2 77Z"/>
</svg>
